<svg id="visual" viewBox="0 0 1440 505" width="1440" height="505" xmlns="http://www.w3.org/2000/svg" xmlns:xlink="http://www.w3.org/1999/xlink" version="1.1"><g stroke-width="1" stroke-linejoin="bevel"><path d="M634 253.5L477 221.5L616 339.8Z" fill="#8f3b8f" stroke="#8f3b8f"></path><path d="M597 108.3L451 168.3L477 221.5Z" fill="#c2367a" stroke="#c2367a"></path><path d="M325 350.8L466 412.8L477 221.5Z" fill="#ab3786" stroke="#ab3786"></path><path d="M477 221.5L466 412.8L616 339.8Z" fill="#c2367a" stroke="#c2367a"></path><path d="M634 253.5L597 108.3L477 221.5Z" fill="#4a4194" stroke="#4a4194"></path><path d="M466 412.8L601 505L616 339.8Z" fill="#6f3f94" stroke="#6f3f94"></path><path d="M616 339.8L779 387.8L634 253.5Z" fill="#ea6a36" stroke="#ea6a36"></path><path d="M291 294.5L325 350.8L477 221.5Z" fill="#e67e22" stroke="#e67e22"></path><path d="M466 412.8L444 505L601 505Z" fill="#d43b6b" stroke="#d43b6b"></path><path d="M313 505L444 505L466 412.8Z" fill="#c2367a" stroke="#c2367a"></path><path d="M601 505L779 387.8L616 339.8Z" fill="#c2367a" stroke="#c2367a"></path><path d="M634 253.5L775 132.3L597 108.3Z" fill="#e1465a" stroke="#e1465a"></path><path d="M451 168.3L291 294.5L477 221.5Z" fill="#e85749" stroke="#e85749"></path><path d="M823 220.5L775 132.3L634 253.5Z" fill="#8f3b8f" stroke="#8f3b8f"></path><path d="M779 387.8L823 220.5L634 253.5Z" fill="#e1465a" stroke="#e1465a"></path><path d="M597 108.3L490 0L451 168.3Z" fill="#4a4194" stroke="#4a4194"></path><path d="M451 168.3L315 98.3L291 294.5Z" fill="#8f3b8f" stroke="#8f3b8f"></path><path d="M659 0L490 0L597 108.3Z" fill="#0b428f" stroke="#0b428f"></path><path d="M490 0L315 98.3L451 168.3Z" fill="#ab3786" stroke="#ab3786"></path><path d="M775 132.3L659 0L597 108.3Z" fill="#e1465a" stroke="#e1465a"></path><path d="M160 413.8L313 505L325 350.8Z" fill="#8f3b8f" stroke="#8f3b8f"></path><path d="M325 350.8L313 505L466 412.8Z" fill="#e85749" stroke="#e85749"></path><path d="M601 505L807 505L779 387.8Z" fill="#6f3f94" stroke="#6f3f94"></path><path d="M779 387.8L917 355.8L823 220.5Z" fill="#8f3b8f" stroke="#8f3b8f"></path><path d="M169 150.3L197 286.5L291 294.5Z" fill="#0b428f" stroke="#0b428f"></path><path d="M291 294.5L197 286.5L325 350.8Z" fill="#ab3786" stroke="#ab3786"></path><path d="M490 0L335 0L315 98.3Z" fill="#e1465a" stroke="#e1465a"></path><path d="M315 98.3L169 150.3L291 294.5Z" fill="#8f3b8f" stroke="#8f3b8f"></path><path d="M807 505L917 355.8L779 387.8Z" fill="#e1465a" stroke="#e1465a"></path><path d="M823 220.5L978 121.3L775 132.3Z" fill="#6f3f94" stroke="#6f3f94"></path><path d="M917 355.8L929 229.5L823 220.5Z" fill="#4a4194" stroke="#4a4194"></path><path d="M775 132.3L830 0L659 0Z" fill="#ab3786" stroke="#ab3786"></path><path d="M978 121.3L830 0L775 132.3Z" fill="#e67e22" stroke="#e67e22"></path><path d="M176 0L169 150.3L315 98.3Z" fill="#e67e22" stroke="#e67e22"></path><path d="M0 346.8L160 413.8L197 286.5Z" fill="#4a4194" stroke="#4a4194"></path><path d="M197 286.5L160 413.8L325 350.8Z" fill="#4a4194" stroke="#4a4194"></path><path d="M160 413.8L183 505L313 505Z" fill="#6f3f94" stroke="#6f3f94"></path><path d="M807 505L947 505L917 355.8Z" fill="#ea6a36" stroke="#ea6a36"></path><path d="M1083 104.3L978 121.3L1117 232.5Z" fill="#ea6a36" stroke="#ea6a36"></path><path d="M1090 356.8L929 229.5L917 355.8Z" fill="#e1465a" stroke="#e1465a"></path><path d="M929 229.5L978 121.3L823 220.5Z" fill="#ea6a36" stroke="#ea6a36"></path><path d="M335 0L176 0L315 98.3Z" fill="#d43b6b" stroke="#d43b6b"></path><path d="M978 121.3L975 0L830 0Z" fill="#8f3b8f" stroke="#8f3b8f"></path><path d="M0 116.3L0 248.5L169 150.3Z" fill="#e1465a" stroke="#e1465a"></path><path d="M169 150.3L0 248.5L197 286.5Z" fill="#e85749" stroke="#e85749"></path><path d="M160 413.8L0 505L183 505Z" fill="#8f3b8f" stroke="#8f3b8f"></path><path d="M947 505L1090 356.8L917 355.8Z" fill="#ab3786" stroke="#ab3786"></path><path d="M978 121.3L1083 104.3L975 0Z" fill="#4a4194" stroke="#4a4194"></path><path d="M0 248.5L0 346.8L197 286.5Z" fill="#0b428f" stroke="#0b428f"></path><path d="M1117 232.5L978 121.3L929 229.5Z" fill="#0b428f" stroke="#0b428f"></path><path d="M176 0L0 116.3L169 150.3Z" fill="#e67e22" stroke="#e67e22"></path><path d="M1090 356.8L1117 232.5L929 229.5Z" fill="#d43b6b" stroke="#d43b6b"></path><path d="M0 346.8L0 505L160 413.8Z" fill="#e85749" stroke="#e85749"></path><path d="M176 0L0 0L0 116.3Z" fill="#ea6a36" stroke="#ea6a36"></path><path d="M1255 127.3L1097 0L1083 104.3Z" fill="#4a4194" stroke="#4a4194"></path><path d="M1083 104.3L1097 0L975 0Z" fill="#6f3f94" stroke="#6f3f94"></path><path d="M947 505L1148 505L1090 356.8Z" fill="#c2367a" stroke="#c2367a"></path><path d="M1090 356.8L1245 245.5L1117 232.5Z" fill="#ea6a36" stroke="#ea6a36"></path><path d="M1117 232.5L1255 127.3L1083 104.3Z" fill="#e1465a" stroke="#e1465a"></path><path d="M1262 388.8L1245 245.5L1090 356.8Z" fill="#4a4194" stroke="#4a4194"></path><path d="M1148 505L1262 388.8L1090 356.8Z" fill="#e1465a" stroke="#e1465a"></path><path d="M1306 0L1255 127.3L1440 164.3Z" fill="#4a4194" stroke="#4a4194"></path><path d="M1245 245.5L1255 127.3L1117 232.5Z" fill="#ab3786" stroke="#ab3786"></path><path d="M1148 505L1279 505L1262 388.8Z" fill="#e85749" stroke="#e85749"></path><path d="M1440 215.5L1255 127.3L1245 245.5Z" fill="#4a4194" stroke="#4a4194"></path><path d="M1440 215.5L1245 245.5L1440 353.8Z" fill="#e67e22" stroke="#e67e22"></path><path d="M1255 127.3L1306 0L1097 0Z" fill="#ea6a36" stroke="#ea6a36"></path><path d="M1440 353.8L1245 245.5L1262 388.8Z" fill="#4a4194" stroke="#4a4194"></path><path d="M1440 505L1440 353.8L1262 388.8Z" fill="#0b428f" stroke="#0b428f"></path><path d="M1440 215.5L1440 164.3L1255 127.3Z" fill="#e85749" stroke="#e85749"></path><path d="M1279 505L1440 505L1262 388.8Z" fill="#d43b6b" stroke="#d43b6b"></path><path d="M1440 164.3L1440 0L1306 0Z" fill="#6f3f94" stroke="#6f3f94"></path></g></svg>