<svg id="wave" style="transform:rotate(0deg); transition: 0.3s; width=100%; height=100%;" viewBox="0 0 1440 490" version="1.1" xmlns="http://www.w3.org/2000/svg"><defs><linearGradient id="sw-gradient-0" x1="0" x2="0" y1="1" y2="0"><stop stop-color="rgba(47, 47, 47, 1)" offset="0%"></stop><stop stop-color="rgba(47, 47, 47, 1)" offset="100%"></stop></linearGradient></defs><path style="transform:translate(0, 0px); opacity:1" fill="url(#sw-gradient-0)" d="M0,441L1440,196L2880,49L4320,0L5760,196L7200,147L8640,392L10080,392L11520,441L12960,196L14400,294L15840,294L17280,147L18720,245L20160,147L21600,441L23040,49L24480,0L25920,98L27360,294L28800,441L30240,49L31680,245L33120,0L34560,392L34560,490L33120,490L31680,490L30240,490L28800,490L27360,490L25920,490L24480,490L23040,490L21600,490L20160,490L18720,490L17280,490L15840,490L14400,490L12960,490L11520,490L10080,490L8640,490L7200,490L5760,490L4320,490L2880,490L1440,490L0,490Z"></path></svg>